<svg width="16" height="16" viewBox="0 0 16 16" fill="none" xmlns="http://www.w3.org/2000/svg">
  <path fill-rule="evenodd" clip-rule="evenodd"
    d="M8 14.657A6.666 6.666 0 0 1 1.342 8 6.666 6.666 0 0 1 8 1.341 6.666 6.666 0 0 1 14.658 8 6.666 6.666 0 0 1 8 14.657zM8 2.673a5.332 5.332 0 0 0-5.327 5.326A5.332 5.332 0 0 0 8 13.326a5.332 5.332 0 0 0 5.326-5.327A5.332 5.332 0 0 0 8 2.673zm0 9.316a.997.997 0 1 0 0-1.994.997.997 0 0 0 0 1.994zm-.666-3.323a.666.666 0 1 0 1.332 0V4.67a.666.666 0 1 0-1.332 0v3.995z"
    fill="#c10824" />
</svg>