<svg width="16" height="16" viewBox="0 0 16 16" fill="none" xmlns="http://www.w3.org/2000/svg">
    <path d="M5.328 14.658a1.332 1.332 0 1 0 0-2.664 1.332 1.332 0 0 0 0 2.664zM11.97 14.658a1.332 1.332 0 1 0 0-2.664 1.332 1.332 0 0 0 0 2.664zM14.64 4.115l-.665 3.994a.666.666 0 0 1-.657.557H5.027l.204 1.332h7.43a.666.666 0 1 1 0 1.331h-8a.666.666 0 0 1-.659-.565L2.76 2.674h-.752a.666.666 0 1 1 0-1.332h1.323c.33 0 .608.24.658.565l.834 5.428h7.931l.574-3.44a.665.665 0 1 1 1.313.22z" fill="#FEFAF6"/>
    <path d="M11.33 4.006a.666.666 0 0 1-.666.665H9.332v1.332a.666.666 0 1 1-1.332 0V4.671H6.67a.666.666 0 1 1 0-1.331H8V2.008a.666.666 0 1 1 1.332 0V3.34h1.332c.367 0 .665.298.665.666z" fill="#FEFAF6"/>
</svg>
