<svg width="16" height="16" viewBox="0 0 16 16" fill="none" xmlns="http://www.w3.org/2000/svg">
  <path
    d="M12.6333 7.80437V12.6333H3.33669V3.33669H8.16563V2H2.90076L2.87427 2.00963C2.43834 2.14692 2.14692 2.43834 2.00963 2.87427L2 2.90076V13.0692L2.00963 13.0957C2.14932 13.5317 2.44075 13.8207 2.87427 13.9604L2.90076 13.97H13.0692L13.0957 13.9604C13.5317 13.8207 13.8207 13.5293 13.9604 13.0957L13.97 13.0692V7.80437H12.6333Z"
    fill="#785431" />
  <path
    d="M13.9579 2.46001C13.8808 2.24566 13.7243 2.08911 13.5099 2.01204L13.481 2H9.73107V3.33669H9.91171C10.4897 3.33428 11.075 3.33669 11.6578 3.34151L7.85489 7.14445L7.84526 7.1589C7.78986 7.24079 7.78986 7.34435 7.84526 7.42624L7.85489 7.44069L8.52685 8.11265L8.5413 8.12228C8.58224 8.14877 8.628 8.16323 8.67617 8.16323C8.72434 8.16323 8.7701 8.14877 8.81105 8.12228L8.8255 8.11265L12.6284 4.31211C12.6357 4.89255 12.6381 5.4778 12.6333 6.05824V6.23887H13.9699V2.48892L13.9579 2.46001Z"
    fill="#785431" />
</svg>