<svg fill="none" height="16" viewBox="0 0 27 27" width="16" xmlns="http://www.w3.org/2000/svg">
  <path
    d="m26.4138 13-12.4138-12.41374c-.185-.186526-.4053-.334408-.648-.435051-.2427-.1006429-.503-.1520383-.7657-.15119888h-11.58629c-.265216 0-.51957.10535688-.707106.29289388-.187537.187536-.29289388.44189-.29289388.707106v11.58629c-.00083942.2627.05055598.523.15119888.7657.100643.2427.248525.463.435051.648l12.41374 12.4138c.1857.1857.4062.3331.6489.4336.2427.1006.5028.1523.7655.1523s.5228-.0517.7655-.1523c.2426-.1005.4631-.2479.6489-.4336l10.585-10.585c.1857-.1858.3331-.4063.4336-.6489.1006-.2427.1523-.5028.1523-.7655s-.0517-.5228-.1523-.7655c-.1005-.2427-.2479-.4632-.4336-.6489zm-12 12-12.41379-12.4137v-10.58629h10.58629l12.4137 12.41379zm-6.41379-18.49999c0 .29667-.08797.58668-.2528.83335-.16482.24668-.39909.43894-.67317.55247-.27409.11353-.57569.14324-.86667.08536-.29097-.05788-.55824-.20074-.76802-.41052s-.35264-.47705-.41052-.76802c-.05788-.29098-.02817-.59258.08536-.86667.11353-.27408.30579-.50835.55247-.67317.24667-.16483.53668-.2528.83335-.2528.39782 0 .77936.15804 1.06066.43934s.43934.66284.43934 1.06066z"
    fill="#FF0000" />
</svg>
