<svg width="164" height="48" viewBox="0 0 164 48" fill="none" xmlns="http://www.w3.org/2000/svg">
<g clip-path="url(#clip0_6192_21103)">
<g clip-path="url(#clip1_6192_21103)">
<path d="M49.3911 32.7638C50.0992 31.5228 50.4525 30.1431 50.4525 28.6291C50.4525 26.9895 50.105 25.5178 49.4101 24.214C48.7151 22.9102 47.7092 21.8853 46.3922 21.1407C45.2695 20.5056 43.9949 20.1421 42.567 20.0486L36.2598 26.3559V46.101H41.6983V36.7876H42.0823L45.7221 46.101H51.1241L46.7309 35.5233C47.8522 34.8224 48.7414 33.9056 49.3925 32.7638H49.3911ZM42.0326 24.6798C42.6531 24.6798 43.1817 24.8418 43.6153 25.1645C44.0489 25.4872 44.373 25.9412 44.5833 26.5238C44.7935 27.1078 44.9001 27.7837 44.9001 28.5546C44.9001 29.3737 44.7935 30.076 44.5833 30.66C44.3716 31.244 44.0489 31.6966 43.6153 32.0192C43.1802 32.3419 42.6531 32.504 42.0326 32.504H41.5859V24.6812H42.0326V24.6798ZM59.8769 41.0333H66.4338V46.0995H54.3259V20.0223H66.2104V25.0886H59.8769V30.3782H65.13V35.221H59.8769V41.0319V41.0333ZM94.7462 20.0223L89.6421 46.0995H84.5379L81.6354 31.7374L78.7635 46.0995H73.6593L68.5187 20.0223H73.9951L76.6173 35.4605L79.806 20.0223H83.5684L86.7644 35.6386L89.4172 20.0223H94.7448H94.7462ZM100.037 20.0223L94.5608 46.0995H99.8884L100.81 40.772H105.102L105.999 46.0995H111.549L106.036 20.0223H100.039H100.037ZM104.59 35.9671H101.262L102.94 26.4172L104.59 35.9671ZM127.548 32.7638C128.256 31.5228 128.61 30.1431 128.61 28.6291C128.61 26.9895 128.262 25.5178 127.567 24.214C126.872 22.9102 125.866 21.8853 124.549 21.1407C123.232 20.3961 121.705 20.0238 119.968 20.0238H114.417V46.101H119.855V36.7876H120.239L123.879 46.101H129.281L124.888 35.5233C126.009 34.8224 126.899 33.9056 127.55 32.7638H127.548ZM120.19 24.6798C120.81 24.6798 121.339 24.8418 121.772 25.1645C122.206 25.4872 122.53 25.9412 122.74 26.5238C122.951 27.1078 123.057 27.7837 123.057 28.5546C123.057 29.3737 122.951 30.076 122.74 30.66C122.529 31.244 122.206 31.6966 121.772 32.0192C121.337 32.3419 120.81 32.504 120.19 32.504H119.743V24.6812H120.19V24.6798ZM142.672 21.643C141.145 20.5625 139.363 20.0223 137.326 20.0223H132.483V46.0995H137.326C139.363 46.0995 141.144 45.5535 142.672 44.46C144.2 43.3679 145.392 41.8392 146.249 39.8785C147.107 37.9162 147.534 35.6444 147.534 33.0617C147.534 30.4789 147.107 28.1692 146.249 26.2069C145.392 24.2447 144.201 22.7234 142.672 21.643ZM141.481 37.4563C141.17 38.674 140.737 39.5865 140.177 40.1938C139.618 40.8026 138.967 41.1063 138.221 41.1063H137.811V25.0126H138.221C138.966 25.0126 139.618 25.3163 140.177 25.9252C140.737 26.534 141.17 27.4465 141.481 28.6627C141.791 29.8803 141.947 31.3447 141.947 33.0588C141.947 34.7728 141.792 36.2387 141.481 37.4548V37.4563ZM164 39.6171C164 40.934 163.708 42.1079 163.124 43.1372C162.54 44.168 161.708 44.987 160.628 45.5958C159.547 46.2047 158.286 46.5084 156.846 46.5084C155.407 46.5084 154.207 46.2105 153.252 45.6148C152.295 45.0191 151.551 44.2424 151.016 43.2861C150.482 42.3298 150.116 41.318 149.917 40.2508L154.388 38.5367C154.661 39.5558 155.002 40.3442 155.413 40.9019C155.823 41.4596 156.325 41.74 156.921 41.74C157.268 41.74 157.578 41.6465 157.852 41.4611C158.125 41.2742 158.324 41.0392 158.448 40.753C158.572 40.4683 158.635 40.1004 158.635 39.6536C158.635 38.9338 158.48 38.2754 158.169 37.6797C157.858 37.084 157.48 36.5686 157.033 36.1335C156.586 35.6999 155.964 35.1962 155.17 34.6253C154.176 33.8311 153.368 33.1172 152.748 32.4835C152.127 31.8499 151.599 31.0366 151.165 30.0438C150.73 29.051 150.513 27.8465 150.513 26.4303C150.513 25.1397 150.792 23.9775 151.351 22.9467C151.91 21.916 152.704 21.1027 153.735 20.5071C154.766 19.9114 155.951 19.6135 157.293 19.6135C159.106 19.6135 160.553 20.1479 161.634 21.2152C162.714 22.2839 163.478 23.5877 163.924 25.1265L159.752 27.1005C159.429 26.2069 159.087 25.5295 158.727 25.0696C158.366 24.6097 157.938 24.3805 157.442 24.3805C157.094 24.3805 156.808 24.4739 156.585 24.6593C156.362 24.8462 156.194 25.0871 156.083 25.3864C155.97 25.6843 155.915 26.0201 155.915 26.3924C155.915 27.137 156.051 27.7896 156.325 28.3488C156.598 28.908 156.964 29.3985 157.424 29.8205C157.884 30.2424 158.499 30.7519 159.268 31.3476C160.261 32.0922 161.076 32.7814 161.708 33.415C162.34 34.0486 162.882 34.8677 163.329 35.8737C163.775 36.8796 163.999 38.1279 163.999 39.6171H164ZM58.7366 15.235C59.6491 14.8218 60.3324 14.2538 60.7864 13.5282C61.2405 12.8041 61.4683 11.9733 61.4683 11.0375C61.4683 10.1016 61.2405 9.2723 60.7864 8.54668C60.3324 7.82251 59.6491 7.25311 58.7366 6.83993C57.8241 6.42674 56.7072 6.22088 55.3859 6.22088H51.3548V15.8526H55.3859C56.7072 15.8526 57.8241 15.6467 58.7366 15.2335V15.235ZM54.5873 9.08396H55.5231C56.129 9.08396 56.6356 9.16718 57.043 9.33216C57.4503 9.49714 57.7511 9.72636 57.9438 10.0198C58.1365 10.3133 58.2329 10.652 58.2329 11.0375C58.2329 11.4229 58.1365 11.7616 57.9438 12.0551C57.7511 12.3485 57.4503 12.5778 57.043 12.7427C56.6342 12.9077 56.1276 12.9909 55.5231 12.9909H54.5873V9.08396ZM74.4623 15.4058C75.3384 14.9517 76.0143 14.34 76.4918 13.5691C76.9692 12.7982 77.2072 11.9543 77.2072 11.0375C77.2072 10.1206 76.9692 9.27668 76.4918 8.5058C76.0143 7.73491 75.3384 7.12317 74.4623 6.66911C73.5863 6.21504 72.5746 5.98728 71.4284 5.98728C70.2823 5.98728 69.2706 6.21504 68.3945 6.66911C67.5185 7.12317 66.8426 7.73491 66.3651 8.5058C65.8877 9.27668 65.6497 10.1206 65.6497 11.0375C65.6497 11.9543 65.8877 12.7982 66.3651 13.5691C66.8426 14.34 67.5185 14.9517 68.3945 15.4058C69.2706 15.8599 70.2823 16.0876 71.4284 16.0876C72.5746 16.0876 73.5863 15.8613 74.4623 15.4058ZM69.1932 12.1456C68.9873 11.8113 68.8837 11.4419 68.8837 11.0375C68.8837 10.633 68.9873 10.2651 69.1932 9.9293C69.399 9.59496 69.6954 9.3307 70.0809 9.13798C70.4663 8.94526 70.916 8.8489 71.4299 8.8489C71.9438 8.8489 72.3935 8.94526 72.779 9.13798C73.1644 9.3307 73.4608 9.59496 73.6666 9.9293C73.8725 10.2636 73.9762 10.633 73.9762 11.0375C73.9762 11.4419 73.8725 11.8098 73.6666 12.1456C73.4608 12.4799 73.1644 12.7442 72.779 12.9369C72.3935 13.1296 71.9438 13.226 71.4299 13.226C70.916 13.226 70.4663 13.1296 70.0809 12.9369C69.6954 12.7442 69.4005 12.4814 69.1932 12.1456ZM84.7875 15.854H81.6237V6.22234H84.8021L87.874 11.5558L90.994 6.22234H94.1447V15.854H90.9809V11.6288L88.6273 15.854H87.087L84.789 11.7076V15.854H84.7875ZM102.027 15.854H98.7934V6.22234H102.027V15.854ZM117.025 15.854H114.011L109.843 11.017V15.854H106.679V6.22234H109.692L113.861 11.0594V6.22234H117.025V15.854ZM132.283 8.5058C131.806 7.73491 131.13 7.12317 130.254 6.66911C129.378 6.21504 128.366 5.98728 127.22 5.98728C126.074 5.98728 125.062 6.21504 124.186 6.66911C123.31 7.12317 122.634 7.73491 122.156 8.5058C121.679 9.27668 121.441 10.1206 121.441 11.0375C121.441 11.9543 121.679 12.7982 122.156 13.5691C122.634 14.34 123.31 14.9517 124.186 15.4058C125.062 15.8599 126.072 16.0876 127.22 16.0876C128.367 16.0876 129.378 15.8613 130.254 15.4058C131.13 14.9517 131.806 14.34 132.283 13.5691C132.76 12.7982 132.998 11.9543 132.998 11.0375C132.998 10.1206 132.76 9.27668 132.283 8.5058ZM129.456 12.1456C129.251 12.4799 128.954 12.7442 128.569 12.9369C128.183 13.1296 127.734 13.226 127.22 13.226C126.706 13.226 126.256 13.1296 125.871 12.9369C125.485 12.7442 125.189 12.4814 124.983 12.1456C124.777 11.8113 124.673 11.4419 124.673 11.0375C124.673 10.633 124.777 10.2651 124.983 9.9293C125.189 9.59496 125.485 9.3307 125.871 9.13798C126.256 8.94526 126.706 8.8489 127.22 8.8489C127.734 8.8489 128.183 8.94526 128.569 9.13798C128.954 9.3307 129.251 9.59496 129.456 9.9293C129.662 10.2636 129.766 10.633 129.766 11.0375C129.766 11.4419 129.662 11.8098 129.456 12.1456ZM135.502 8.47222C135.355 8.21963 135.282 7.94223 135.282 7.64001C135.282 7.33779 135.355 7.06039 135.502 6.80781C135.648 6.55523 135.848 6.35666 136.101 6.2092C136.354 6.0632 136.631 5.98874 136.933 5.98874C137.235 5.98874 137.513 6.06174 137.765 6.2092C138.018 6.35666 138.217 6.55523 138.364 6.80781C138.51 7.06039 138.584 7.33779 138.584 7.64001C138.584 8.10721 138.427 8.57734 138.11 9.05038C137.793 9.52342 137.374 9.90594 136.851 10.1994L136.742 10.0344C136.879 9.9147 136.98 9.77308 137.044 9.6081C137.085 9.50298 137.107 9.39348 137.114 9.28106C137.054 9.28836 136.995 9.29274 136.933 9.29274C136.631 9.29274 136.354 9.21974 136.101 9.07228C135.848 8.92628 135.648 8.72626 135.502 8.47368V8.47222ZM150.307 13.0873C150.307 13.6465 150.139 14.1531 149.805 14.6072C149.47 15.0612 148.964 15.4219 148.285 15.6876C147.606 15.9533 146.771 16.0862 145.781 16.0862C145.046 16.0862 144.354 16.0015 143.703 15.8321C143.052 15.6628 142.474 15.4189 141.97 15.1036C141.465 14.7868 141.071 14.4174 140.788 13.9954L142.865 12.3164C143.195 12.7019 143.613 13.0026 144.118 13.2172C144.622 13.4333 145.159 13.5399 145.728 13.5399C146.03 13.5399 146.271 13.5165 146.451 13.4713C146.629 13.426 146.756 13.3618 146.829 13.2786C146.902 13.1953 146.939 13.0946 146.939 12.9763C146.939 12.8479 146.87 12.7384 146.733 12.6464C146.596 12.5544 146.42 12.4741 146.21 12.4055C145.998 12.3369 145.687 12.2434 145.274 12.1237C144.495 11.9135 143.839 11.6974 143.306 11.4769C142.775 11.2565 142.31 10.9338 141.916 10.5075C141.522 10.0811 141.325 9.53364 141.325 8.8635C141.325 8.32183 141.49 7.83565 141.82 7.40495C142.15 6.97425 142.645 6.62969 143.306 6.37272C143.966 6.11576 144.769 5.98728 145.714 5.98728C146.549 5.98728 147.369 6.12306 148.177 6.39316C148.984 6.66327 149.672 7.04287 150.241 7.52759L148.673 9.50882C148.178 9.1701 147.701 8.9219 147.242 8.76568C146.784 8.60946 146.302 8.53208 145.797 8.53208C145.531 8.53208 145.315 8.55544 145.15 8.6007C144.985 8.64596 144.868 8.70436 144.8 8.77298C144.731 8.8416 144.696 8.9219 144.696 9.01388C144.696 9.14236 144.765 9.2504 144.902 9.33654C145.039 9.42414 145.211 9.50006 145.417 9.5643C145.623 9.62854 145.928 9.70592 146.333 9.7979C147.121 9.99938 147.783 10.2038 148.314 10.4096C148.845 10.6155 149.311 10.9367 149.711 11.3733C150.11 11.8083 150.31 12.3807 150.31 13.0858L150.307 13.0873ZM152.768 6.54646H152.846L153.033 6.87789H153.364L153.131 6.48952C153.189 6.4574 153.236 6.41652 153.268 6.36396C153.303 6.30848 153.319 6.24424 153.319 6.1727C153.319 6.10116 153.301 6.03692 153.268 5.97998C153.233 5.92304 153.185 5.87778 153.122 5.8442C153.059 5.81062 152.985 5.79456 152.9 5.79456H152.459V6.87789H152.77V6.54646H152.768ZM152.881 6.06466C152.914 6.06466 152.942 6.07488 152.966 6.09532C152.989 6.11576 152.999 6.14204 152.999 6.17416C152.999 6.2092 152.989 6.2384 152.967 6.25884C152.945 6.27928 152.917 6.2895 152.881 6.2895H152.757V6.06466H152.881ZM152.328 7.27209C152.491 7.36699 152.671 7.41371 152.866 7.41371C153.062 7.41371 153.243 7.36699 153.406 7.27209C153.57 7.17719 153.698 7.04871 153.792 6.88519C153.887 6.72167 153.934 6.53916 153.934 6.33768C153.934 6.1362 153.887 5.9537 153.792 5.79018C153.697 5.62666 153.569 5.49672 153.406 5.40328C153.244 5.30838 153.063 5.26166 152.866 5.26166C152.669 5.26166 152.491 5.30838 152.328 5.40328C152.164 5.49818 152.034 5.62666 151.941 5.79018C151.846 5.9537 151.799 6.1362 151.799 6.33768C151.799 6.53916 151.846 6.72167 151.941 6.88519C152.036 7.04871 152.164 7.17865 152.328 7.27209ZM152.206 5.9318C152.272 5.81354 152.361 5.7201 152.476 5.6544C152.592 5.58724 152.722 5.55366 152.866 5.55366C153.011 5.55366 153.141 5.58724 153.256 5.6544C153.371 5.72156 153.462 5.81354 153.526 5.9318C153.592 6.05006 153.624 6.18584 153.624 6.33768C153.624 6.48952 153.592 6.62531 153.526 6.74357C153.46 6.86183 153.371 6.95527 153.256 7.02097C153.141 7.08813 153.011 7.12171 152.866 7.12171C152.722 7.12171 152.593 7.08813 152.476 7.02097C152.361 6.95381 152.271 6.86183 152.206 6.74357C152.141 6.62531 152.109 6.48952 152.109 6.33768C152.109 6.18584 152.141 6.05006 152.206 5.9318Z" fill="#0090E2"/>
<path d="M43.5387 17.295C44.1534 16.6804 44.1534 15.6847 43.5387 15.07L30.9301 2.46136C30.3154 1.8467 29.3197 1.8467 28.705 2.46136L14.9824 16.184L29.8176 31.0191L43.5402 17.2965L43.5387 17.295ZM32.4091 18.774C31.7448 19.4383 30.8308 19.8515 29.8176 19.8515C28.8058 19.8515 27.8874 19.4354 27.2261 18.774C26.5647 18.1127 26.1486 17.1958 26.1486 16.1825C26.1486 15.1707 26.5603 14.2568 27.2217 13.591C27.886 12.9267 28.7999 12.5135 29.8176 12.5135C30.8352 12.5135 31.7433 12.9252 32.4091 13.591C33.0705 14.2524 33.4866 15.1693 33.4866 16.1825C33.4866 17.1958 33.0748 18.1127 32.4091 18.774Z" fill="#FF0000"/>
<path d="M0.369201 30.7957C-0.245463 31.4104 -0.245463 32.4061 0.369201 33.0208L12.9793 45.6309C13.594 46.2455 14.5897 46.2455 15.2043 45.6309L28.927 31.9083L14.0918 17.0731L0.369201 30.7957ZM11.4872 34.4983C10.8229 35.1626 9.90889 35.5758 8.89565 35.5758C7.88386 35.5758 6.96552 35.1597 6.30413 34.4983C5.63983 33.834 5.22665 32.92 5.22665 31.9068C5.22665 30.895 5.63837 29.9811 6.29975 29.3153C6.96406 28.651 7.87802 28.2378 8.89565 28.2378C9.90889 28.2378 10.8214 28.6495 11.4872 29.3153C12.1485 29.9767 12.5646 30.8936 12.5646 31.9068C12.5646 32.9186 12.1529 33.8369 11.4872 34.4983ZM16.6892 29.3094C17.3535 28.6451 18.2674 28.232 19.2851 28.232C20.2969 28.232 21.2108 28.6437 21.8766 29.3094C22.538 29.9708 22.9541 30.8877 22.9541 31.901C22.9541 32.9142 22.5423 33.8311 21.8766 34.4925C21.2123 35.1568 20.2983 35.57 19.2851 35.57C18.2733 35.57 17.3549 35.1539 16.6936 34.4925C16.0292 33.8282 15.6161 32.9142 15.6161 31.901C15.6161 30.8877 16.0278 29.9752 16.6892 29.3094Z" fill="#0090E2"/>
<path d="M19.3378 44.587C18.8458 44.587 18.4297 44.971 18.4297 45.4907C18.4297 46.0105 18.8458 46.4003 19.3378 46.4003C19.8298 46.4003 20.2416 46.0163 20.2416 45.4907C20.2416 44.9651 19.824 44.587 19.3378 44.587ZM19.3378 46.2543C18.9232 46.2543 18.602 45.9346 18.602 45.4922C18.602 45.0498 18.9232 44.7344 19.3378 44.7344C19.7525 44.7344 20.0678 45.06 20.0678 45.4922C20.0678 45.9243 19.7466 46.2543 19.3378 46.2543ZM19.751 45.2688C19.751 45.0629 19.6313 44.971 19.3845 44.971H18.9889V46.0163H19.148V45.5623H19.3261L19.6006 46.0163H19.7744L19.4809 45.5579C19.6357 45.5374 19.751 45.4571 19.751 45.2688ZM19.148 45.4309V45.1038H19.3626C19.5437 45.1038 19.5919 45.1608 19.5919 45.26C19.5919 45.3754 19.5291 45.4309 19.3364 45.4309H19.148Z" fill="#0090E2"/>
</g>
</g>
<defs>
<clipPath id="clip0_6192_21103">
<rect width="164" height="48" fill="white"/>
</clipPath>
<clipPath id="clip1_6192_21103">
<rect width="164.092" height="44.5098" fill="white" transform="translate(-0.0917969 2)"/>
</clipPath>
</defs>
</svg>
